<svg width="327" height="256" viewBox="0 0 327 256" fill="none" xmlns="http://www.w3.org/2000/svg">
<path d="M270.079 150.391L229.73 220.27C228.963 221.6 228.56 223.108 228.561 224.643C228.561 226.178 228.966 227.685 229.734 229.014C230.502 230.343 231.606 231.446 232.936 232.213C234.265 232.98 235.773 233.384 237.308 233.383H317.999C319.533 233.382 321.04 232.978 322.368 232.21C323.697 231.443 324.8 230.339 325.567 229.011C326.334 227.682 326.738 226.175 326.738 224.641C326.739 223.107 326.336 221.599 325.569 220.27L285.22 150.391C284.452 149.063 283.348 147.96 282.019 147.194C280.691 146.427 279.184 146.023 277.649 146.023C276.115 146.023 274.608 146.427 273.28 147.194C271.951 147.96 270.847 149.063 270.079 150.391Z" fill="#EBEBEB"/>
<path d="M275.55 170.363H279.738C281.034 170.363 282.277 170.878 283.193 171.794C284.109 172.71 284.624 173.953 284.624 175.248V180.783C284.639 180.987 284.639 181.191 284.624 181.394L282.455 198.374C282.31 199.558 281.735 200.648 280.841 201.437C279.946 202.226 278.794 202.66 277.601 202.657C276.407 202.66 275.254 202.225 274.359 201.434C273.465 200.643 272.891 199.552 272.747 198.367L270.712 181.394C270.696 181.196 270.696 180.997 270.712 180.799V175.256C270.71 173.967 271.217 172.73 272.123 171.813C273.03 170.897 274.261 170.376 275.55 170.363ZM276.035 208.387H279.324C280.619 208.387 281.861 208.901 282.778 209.815C283.695 210.729 284.212 211.97 284.216 213.265V215.026C284.216 215.668 284.09 216.303 283.845 216.896C283.599 217.488 283.239 218.027 282.786 218.48C282.332 218.934 281.794 219.294 281.201 219.539C280.608 219.785 279.973 219.911 279.331 219.911H276.035C275.394 219.913 274.758 219.789 274.164 219.545C273.571 219.3 273.031 218.941 272.577 218.488C272.122 218.035 271.761 217.497 271.515 216.904C271.269 216.311 271.143 215.676 271.143 215.034V213.273C271.143 211.977 271.657 210.734 272.573 209.818C273.489 208.902 274.732 208.387 276.028 208.387H276.035Z" fill="white"/>
<path d="M98.0412 150.82H6.59389C3.6927 150.82 1.34082 153.172 1.34082 156.073V163.119C1.34082 166.02 3.6927 168.372 6.59389 168.372H98.0412C100.942 168.372 103.294 166.02 103.294 163.119V156.073C103.294 153.172 100.942 150.82 98.0412 150.82Z" fill="#EBEBEB"/>
<path d="M98.0412 175.898H6.59389C3.6927 175.898 1.34082 178.25 1.34082 181.152V188.197C1.34082 191.099 3.6927 193.45 6.59389 193.45H98.0412C100.942 193.45 103.294 191.099 103.294 188.197V181.152C103.294 178.25 100.942 175.898 98.0412 175.898Z" fill="#EBEBEB"/>
<path d="M52.3135 164.336C54.9294 164.336 57.0499 162.215 57.0499 159.6C57.0499 156.984 54.9294 154.863 52.3135 154.863C49.6977 154.863 47.5771 156.984 47.5771 159.6C47.5771 162.215 49.6977 164.336 52.3135 164.336Z" fill="white"/>
<path d="M69.0294 164.336C71.6452 164.336 73.7657 162.215 73.7657 159.6C73.7657 156.984 71.6452 154.863 69.0294 154.863C66.4135 154.863 64.293 156.984 64.293 159.6C64.293 162.215 66.4135 164.336 69.0294 164.336Z" fill="white"/>
<path d="M85.7432 164.336C88.359 164.336 90.4796 162.215 90.4796 159.6C90.4796 156.984 88.359 154.863 85.7432 154.863C83.1274 154.863 81.0068 156.984 81.0068 159.6C81.0068 162.215 83.1274 164.336 85.7432 164.336Z" fill="white"/>
<path d="M40.3367 159.6C40.329 160.527 40.0469 161.431 39.5261 162.199C39.0053 162.966 38.269 163.562 37.4101 163.911C36.5511 164.261 35.6079 164.348 34.6993 164.163C33.7907 163.977 32.9574 163.527 32.3044 162.868C31.6514 162.21 31.2079 161.373 31.0298 160.463C30.8517 159.553 30.947 158.61 31.3036 157.754C31.6603 156.898 32.2623 156.167 33.0339 155.652C33.8055 155.138 34.7121 154.863 35.6395 154.863C36.2596 154.863 36.8736 154.986 37.4461 155.225C38.0186 155.463 38.5381 155.813 38.9748 156.253C39.4115 156.693 39.7567 157.216 39.9904 157.79C40.2242 158.365 40.3419 158.98 40.3367 159.6Z" fill="white"/>
<path d="M23.6229 159.596C23.6178 160.84 23.1193 162.031 22.2368 162.908C21.3544 163.785 20.1601 164.276 18.916 164.273C17.6719 164.271 16.4796 163.775 15.6008 162.894C14.7221 162.014 14.2285 160.82 14.2285 159.576C14.2285 158.332 14.7221 157.139 15.6008 156.258C16.4796 155.378 17.6719 154.882 18.916 154.879C20.1601 154.876 21.3544 155.367 22.2368 156.244C23.1193 157.121 23.6178 158.312 23.6229 159.557V159.596Z" fill="white"/>
<path d="M57.0497 184.666C57.0575 185.603 56.7872 186.521 56.2732 187.304C55.7592 188.087 55.0245 188.7 54.1621 189.066C53.2996 189.431 52.3481 189.533 51.4279 189.358C50.5077 189.183 49.66 188.739 48.9922 188.082C48.3244 187.425 47.8663 186.585 47.676 185.668C47.4856 184.75 47.5715 183.797 47.9228 182.929C48.2741 182.061 48.875 181.316 49.6496 180.789C50.4241 180.262 51.3375 179.977 52.2742 179.969C52.8962 179.964 53.5131 180.081 54.0898 180.314C54.6664 180.548 55.1914 180.892 55.6349 181.328C56.0783 181.765 56.4315 182.284 56.6743 182.857C56.917 183.429 57.0446 184.044 57.0497 184.666Z" fill="white"/>
<path d="M73.7656 184.666C73.7733 185.603 73.503 186.521 72.989 187.304C72.475 188.087 71.7404 188.7 70.8779 189.066C70.0154 189.431 69.0639 189.533 68.1437 189.358C67.2235 189.183 66.3759 188.739 65.708 188.082C65.0402 187.425 64.5821 186.585 64.3918 185.668C64.2014 184.75 64.2873 183.797 64.6387 182.929C64.99 182.061 65.5909 181.316 66.3654 180.789C67.1399 180.262 68.0533 179.977 68.99 179.969C69.612 179.964 70.229 180.081 70.8056 180.314C71.3822 180.548 71.9072 180.892 72.3507 181.328C72.7941 181.765 73.1473 182.284 73.3901 182.857C73.6329 183.429 73.7604 184.044 73.7656 184.666Z" fill="white"/>
<path d="M90.4794 184.666C90.4871 185.603 90.2169 186.521 89.7029 187.304C89.1889 188.087 88.4542 188.7 87.5918 189.066C86.7293 189.431 85.7778 189.533 84.8576 189.358C83.9373 189.183 83.0897 188.739 82.4219 188.082C81.7541 187.425 81.296 186.585 81.1057 185.668C80.9153 184.75 81.0012 183.797 81.3525 182.929C81.7038 182.061 82.3047 181.316 83.0793 180.789C83.8538 180.262 84.7672 179.977 85.7039 179.969C86.3259 179.964 86.9428 180.081 87.5194 180.314C88.0961 180.548 88.6211 180.892 89.0645 181.328C89.508 181.765 89.8612 182.284 90.104 182.857C90.3467 183.429 90.4743 184.044 90.4794 184.666Z" fill="white"/>
<path d="M40.3369 184.666C40.3446 185.603 40.0743 186.521 39.5603 187.304C39.0463 188.087 38.3117 188.7 37.4492 189.066C36.5867 189.431 35.6352 189.533 34.715 189.358C33.7948 189.183 32.9471 188.739 32.2793 188.082C31.6115 187.425 31.1534 186.585 30.9631 185.667C30.7727 184.75 30.8586 183.797 31.2099 182.929C31.5612 182.06 32.1621 181.316 32.9367 180.789C33.7112 180.262 34.6246 179.977 35.5613 179.969H35.6396C36.8816 179.981 38.0693 180.48 38.9475 181.358C39.8258 182.236 40.3246 183.424 40.3369 184.666Z" fill="white"/>
<path d="M23.623 184.666C23.623 185.595 23.3475 186.503 22.8314 187.276C22.3152 188.048 21.5816 188.65 20.7233 189.006C19.865 189.361 18.9205 189.454 18.0094 189.273C17.0982 189.092 16.2612 188.644 15.6043 187.987C14.9474 187.331 14.5 186.494 14.3188 185.582C14.1375 184.671 14.2306 183.727 14.5861 182.868C14.9416 182.01 15.5437 181.277 16.3161 180.76C17.0886 180.244 17.9967 179.969 18.9258 179.969C20.1715 179.969 21.3663 180.464 22.2472 181.345C23.1281 182.225 23.623 183.42 23.623 184.666Z" fill="white"/>
<path d="M292.632 8.91323C291.483 8.9155 290.338 9.02823 289.211 9.24986C286.883 5.95188 283.687 3.36325 279.977 1.77116C276.268 0.179063 272.19 -0.35426 268.195 0.230362C264.201 0.814983 260.447 2.49469 257.349 5.08314C254.252 7.67159 251.932 11.0676 250.646 14.8944C249.983 14.8005 249.313 14.7534 248.642 14.7535C244.801 14.7535 241.117 16.2794 238.401 18.9955C235.685 21.7116 234.159 25.3954 234.159 29.2366C234.159 33.0778 235.685 36.7616 238.401 39.4777C241.117 42.1938 244.801 43.7197 248.642 43.7197H292.632C297.248 43.7197 301.674 41.8862 304.938 38.6224C308.202 35.3587 310.035 30.9321 310.035 26.3165C310.035 21.7009 308.202 17.2743 304.938 14.0105C301.674 10.7468 297.248 8.91323 292.632 8.91323Z" fill="#F0F0F0"/>
<path d="M290.754 60.7242C291.393 60.7265 292.03 60.7921 292.656 60.9199C293.953 59.0855 295.732 57.6456 297.796 56.7598C299.861 55.874 302.13 55.5767 304.353 55.9009C306.576 56.225 308.666 57.158 310.392 58.5965C312.117 60.0351 313.411 61.923 314.13 64.0514C314.502 64.0056 314.875 63.9795 315.25 63.9732C317.39 63.9732 319.443 64.8235 320.957 66.3372C322.471 67.8509 323.321 69.9039 323.321 72.0446C323.321 74.1852 322.471 76.2382 320.957 77.7519C319.443 79.2656 317.39 80.116 315.25 80.116H290.754C288.181 80.116 285.714 79.094 283.895 77.275C282.076 75.4559 281.054 72.9887 281.054 70.4162C281.054 67.8436 282.076 65.3765 283.895 63.5574C285.714 61.7383 288.181 60.7164 290.754 60.7164V60.7242Z" fill="#F0F0F0"/>
<path d="M119.466 38.1953H0V109.319H119.466V38.1953Z" fill="#F0F0F0"/>
<path d="M59.7332 76.9867L119.474 38.1953H0L59.7332 76.9867Z" fill="#E0E0E0"/>
<path d="M67.2018 4.2723L119.474 38.2177H0L52.2724 4.2723C54.494 2.82759 57.0871 2.05859 59.7371 2.05859C62.3871 2.05859 64.9802 2.82759 67.2018 4.2723Z" fill="#F0F0F0"/>
<path d="M4.43848 38.1988L54.1039 5.94443C55.7811 4.85637 57.7375 4.27734 59.7367 4.27734C61.7359 4.27734 63.6923 4.85637 65.3695 5.94443L115.043 38.1988H4.43848Z" fill="#E0E0E0"/>
<path d="M99.6361 51.0729L59.7331 76.9859L19.8379 51.0729V10.2695H99.6361V51.0729Z" fill="#FAFAFA"/>
<path d="M49.548 70.3623L0 109.318H119.474L69.9262 70.3623C67.0243 68.0707 63.4347 66.8242 59.7371 66.8242C56.0395 66.8242 52.4498 68.0707 49.548 70.3623Z" fill="#F5F5F5"/>
<path d="M69.0647 38.8359H48.9449C47.8776 38.8359 46.8541 39.2599 46.0995 40.0145C45.3448 40.7692 44.9209 41.7927 44.9209 42.8599V54.9318C44.9209 55.999 45.3448 57.0225 46.0995 57.7772C46.8541 58.5318 47.8776 58.9558 48.9449 58.9558H69.0647C70.1319 58.9558 71.1554 58.5318 71.9101 57.7772C72.6647 57.0225 73.0887 55.999 73.0887 54.9318V42.8599C73.0887 41.7927 72.6647 40.7692 71.9101 40.0145C71.1554 39.2599 70.1319 38.8359 69.0647 38.8359ZM59.0439 50.9078C58.646 50.9078 58.257 50.7898 57.9261 50.5688C57.5953 50.3477 57.3374 50.0334 57.1851 49.6658C57.0328 49.2982 56.993 48.8936 57.0706 48.5033C57.1482 48.113 57.3399 47.7545 57.6212 47.4732C57.9026 47.1918 58.2611 47.0002 58.6514 46.9225C59.0417 46.8449 59.4462 46.8847 59.8139 47.037C60.1815 47.1893 60.4957 47.4472 60.7168 47.7781C60.9379 48.1089 61.0559 48.4979 61.0559 48.8959C61.0559 49.4295 60.8439 49.9412 60.4666 50.3185C60.0893 50.6959 59.5775 50.9078 59.0439 50.9078Z" fill="#E0E0E0"/>
<path d="M67.0531 40.3442C66.8544 40.3453 66.6574 40.3069 66.4736 40.2313C66.2899 40.1558 66.1229 40.0445 65.9824 39.904C65.8419 39.7635 65.7306 39.5965 65.655 39.4127C65.5795 39.2289 65.5411 39.032 65.5421 38.8333V30.7853C65.5421 29.0516 64.8534 27.3889 63.6275 26.163C62.4016 24.9371 60.7389 24.2484 59.0052 24.2484C57.2714 24.2484 55.6087 24.9371 54.3828 26.163C53.1569 27.3889 52.4682 29.0516 52.4682 30.7853V38.8333C52.4682 39.234 52.309 39.6183 52.0256 39.9017C51.7423 40.185 51.358 40.3442 50.9572 40.3442C50.5565 40.3442 50.1722 40.185 49.8888 39.9017C49.6055 39.6183 49.4463 39.234 49.4463 38.8333V30.7853C49.5175 28.2986 50.5554 25.9375 52.3395 24.2037C54.1236 22.4699 56.5134 21.5 59.0013 21.5C61.4891 21.5 63.8788 22.4699 65.663 24.2037C67.4471 25.9375 68.485 28.2986 68.5562 30.7853V38.8333C68.5572 39.0313 68.5191 39.2276 68.444 39.4109C68.369 39.5942 68.2584 39.7608 68.1187 39.9012C67.979 40.0416 67.813 40.153 67.6301 40.2291C67.4472 40.3051 67.2511 40.3442 67.0531 40.3442Z" fill="#E0E0E0"/>
<path d="M156.14 255.107C239.972 255.107 307.931 251.139 307.931 246.245C307.931 241.351 239.972 237.383 156.14 237.383C72.3079 237.383 4.34863 241.351 4.34863 246.245C4.34863 251.139 72.3079 255.107 156.14 255.107Z" fill="#F5F5F5"/>
<path d="M238.429 25.9375H87.875V223.206H238.429V25.9375Z" fill="#00ABAB"/>
<path opacity="0.8" d="M238.429 25.9375H87.875V223.206H238.429V25.9375Z" fill="white"/>
<mask id="mask0_3895_5804" style="mask-type:alpha" maskUnits="userSpaceOnUse" x="87" y="25" width="152" height="199">
<path opacity="0.8" d="M238.195 25.8594H87.6406V223.128H238.195V25.8594Z" fill="white"/>
</mask>
<g mask="url(#mask0_3895_5804)">
<path d="M171.372 153.724L171.669 154.405L172.061 155.188C172.319 155.721 172.609 156.261 172.898 156.801C173.485 157.874 174.159 158.954 174.785 159.987C176.111 162.105 177.573 164.134 179.161 166.062C180.771 167.987 182.491 169.817 184.313 171.543C185.26 172.372 186.176 173.226 187.162 174.063L188.634 175.222L188.971 175.496C188.812 175.446 188.65 175.412 188.485 175.394C188.12 175.358 187.751 175.415 187.413 175.559C187.206 175.621 187.022 175.74 186.88 175.903C186.794 176.028 187.021 175.825 187.209 175.496C187.71 174.578 188.104 173.607 188.383 172.599C189.075 170.153 189.617 167.667 190.004 165.154C190.435 162.555 190.787 159.893 191.069 157.239C191.351 154.586 191.632 151.869 191.852 149.223L196.721 149.145C197.019 151.955 197.144 154.695 197.261 157.49C197.379 160.285 197.324 163.056 197.261 165.898C197.149 168.813 196.817 171.715 196.267 174.58C195.935 176.231 195.409 177.836 194.701 179.363C194.2 180.449 193.508 181.435 192.658 182.276C192.002 182.895 191.231 183.379 190.388 183.701C189.409 184.067 188.357 184.196 187.319 184.076C186.473 183.956 185.655 183.691 184.9 183.293C184.595 183.141 184.3 182.971 184.015 182.785L183.537 182.471L181.698 181.211C180.437 180.381 179.349 179.457 178.183 178.541C175.914 176.648 173.787 174.592 171.818 172.388C169.86 170.17 168.063 167.815 166.44 165.342C165.657 164.082 164.874 162.821 164.169 161.561C163.817 160.888 163.472 160.238 163.144 159.541L162.666 158.469C162.502 158.093 162.376 157.787 162.173 157.271L171.372 153.724Z" fill="#E4897B"/>
<path d="M175.629 160.238L167.158 171.919L170.665 175.363L179.676 164.521L175.629 160.238Z" fill="#F5F5F5"/>
<path d="M162.344 144.827C171.887 147.348 178.463 160.735 178.463 160.735L167.448 176.173C167.448 176.173 154.194 159.498 154.531 154.253C154.86 148.71 156.598 143.277 162.344 144.827Z" fill="#00ABAB"/>
<path d="M162.344 144.827C171.887 147.348 178.463 160.735 178.463 160.735L167.448 176.173C167.448 176.173 154.194 159.498 154.531 154.253C154.86 148.71 156.598 143.277 162.344 144.827Z" fill="#B7BBBC"/>
<path d="M170.57 149.756C170.57 149.756 173.702 153.459 137.392 197.41L103.783 177.728C112.356 164.42 117.311 155.957 127.199 124.047C132.483 125.824 137.629 127.985 142.598 130.513C147.867 133.167 152.963 136.151 157.856 139.446C164.072 143.877 170.57 149.756 170.57 149.756Z" fill="#00ABAB"/>
<path d="M170.57 149.756C170.57 149.756 173.702 153.459 137.392 197.41L103.783 177.728C112.356 164.42 117.311 155.957 127.199 124.047C132.483 125.824 137.629 127.985 142.598 130.513C147.867 133.167 152.963 136.151 157.856 139.446C164.072 143.877 170.57 149.756 170.57 149.756Z" fill="#B7BBBC"/>
<path d="M166.219 145.958C163.871 143.993 160.81 141.566 157.874 139.445C153 136.11 147.896 133.125 142.6 130.512C139.625 128.946 136.58 127.6 133.988 126.598C133.573 127.294 133.91 129.408 135.186 132.508C140.024 138.771 151.266 147.931 160.637 149.732C164.99 149.097 166.352 147.712 166.219 145.958Z" fill="#F5F5F5"/>
<path d="M135.154 132.48C137.979 138.773 141.74 144.601 146.31 149.766C151.063 150.244 155.852 150.244 160.605 149.766C151.258 147.903 140.016 138.72 135.154 132.48Z" fill="#F5F5F5"/>
<path d="M137.433 197.413C137.433 197.413 137.973 283.764 122.668 308.682C106.737 334.603 85.967 366.216 85.967 366.216L67.9609 365.347C67.9609 365.347 88.9654 318.578 96.8724 296.869C107.754 266.94 112.812 183.023 112.812 183.023L137.433 197.413Z" fill="#00ABAB"/>
<path d="M137.433 197.413C137.433 197.413 137.973 283.764 122.668 308.682C106.737 334.603 85.967 366.216 85.967 366.216L67.9609 365.347C67.9609 365.347 88.9654 318.578 96.8724 296.869C107.754 266.94 112.812 183.023 112.812 183.023L137.433 197.413Z" fill="#263238"/>
<path opacity="0.2" d="M118.308 199.824C115.396 202.286 112.891 205.193 110.886 208.436C110.315 214.863 109.626 222.089 108.827 229.644C114.315 222.214 118.644 209.148 118.308 199.824Z" fill="black"/>
<path d="M129.119 192.256C129.119 192.256 90.9227 246.267 67.1234 275.398C47.8961 298.884 -7.76619 315.715 -7.76619 315.715L-14.5615 304.379C-14.5615 304.379 29.7177 279.75 42.9248 263.85C85.1999 212.963 84.6754 186.541 104.31 177.836L129.119 192.256Z" fill="#263238"/>
<path d="M191.999 150.384L189.479 140.309L199.092 143.096C199.092 143.096 198.826 149.875 195.499 152.083L191.999 150.384Z" fill="#E4897B"/>
<path d="M192.538 132.219L199.294 135.64L199.129 143.155L189.516 140.361L192.538 132.219Z" fill="#E4897B"/>
<path d="M104.459 175.459L101.179 177.588C100.929 177.752 101.069 178.159 101.461 178.371L136.721 199.015C137.019 199.187 137.363 199.187 137.504 199.015L139.571 196.181C139.704 195.978 139.571 195.649 139.219 195.461L105.195 175.537C105.091 175.458 104.968 175.408 104.838 175.395C104.708 175.381 104.577 175.403 104.459 175.459Z" fill="#263238"/>
<path d="M124.445 138.504C122.097 140.414 119.795 141.949 117.399 143.546C115.004 145.143 112.554 146.521 110.033 147.883C104.976 150.653 99.6509 152.903 94.1403 154.6C93.4592 154.843 92.7312 154.999 92.0344 155.195C91.3377 155.391 90.6722 155.571 89.8424 155.743C88.0448 156.147 86.1917 156.242 84.3623 156.025C82.418 155.791 80.5481 155.136 78.8821 154.107C77.327 153.127 75.9634 151.872 74.8582 150.404C72.9986 147.802 71.6686 144.86 70.9438 141.745C70.5776 140.31 70.316 138.85 70.1609 137.377C69.9629 135.906 69.8661 134.422 69.8713 132.938L74.7094 132.523C75.2911 134.982 76.0766 137.389 77.0581 139.718C77.9169 141.85 79.1616 143.806 80.7297 145.487C81.2906 146.121 81.975 146.633 82.7411 146.993C83.5071 147.352 84.3385 147.551 85.1843 147.578C86.0748 147.577 86.9598 147.437 87.8069 147.163C88.9029 146.81 90.1555 146.38 91.3611 145.981C96.2116 144.156 100.904 141.936 105.39 139.342C107.684 138.081 109.876 136.633 112.092 135.232C114.307 133.83 116.491 132.257 118.355 130.824L124.445 138.504Z" fill="#E4897B"/>
<path d="M108.857 135.2L113.21 148.376L117.312 145.926L113.476 132.852L108.857 135.2Z" fill="#F5F5F5"/>
<path d="M106.8 181.949L105.892 181.425C105.719 181.307 105.625 181.135 105.704 181.033L108.428 177.369C108.499 177.268 108.718 177.268 108.89 177.369L109.814 177.909C109.986 178.011 110.08 178.183 110.002 178.285L107.277 181.949C107.207 182.051 106.972 182.051 106.8 181.949Z" fill="#00ABAB"/>
<path d="M133.958 197.844L133.05 197.303C132.87 197.202 132.784 197.029 132.862 196.928L135.586 193.256C135.657 193.154 135.876 193.154 136.048 193.256L136.972 193.788C137.144 193.898 137.23 194.078 137.144 194.18L134.436 197.844C134.373 197.945 134.146 197.945 133.958 197.844Z" fill="#00ABAB"/>
<path d="M120.382 189.889L119.497 189.364C119.317 189.262 119.231 189.082 119.317 188.973L122.026 185.317C122.12 185.207 122.315 185.207 122.511 185.317L123.411 185.849C123.607 185.951 123.677 186.123 123.607 186.24L120.883 189.889C120.773 190.006 120.562 190.006 120.382 189.889Z" fill="#00ABAB"/>
<path opacity="0.4" d="M106.8 181.949L105.892 181.425C105.719 181.307 105.625 181.135 105.704 181.033L108.428 177.369C108.499 177.268 108.718 177.268 108.89 177.369L109.814 177.909C109.986 178.011 110.08 178.183 110.002 178.285L107.277 181.949C107.207 182.051 106.972 182.051 106.8 181.949Z" fill="black"/>
<path opacity="0.4" d="M133.958 197.844L133.05 197.303C132.87 197.202 132.784 197.029 132.862 196.928L135.586 193.256C135.657 193.154 135.876 193.154 136.048 193.256L136.972 193.788C137.144 193.898 137.23 194.078 137.144 194.18L134.436 197.844C134.373 197.945 134.146 197.945 133.958 197.844Z" fill="black"/>
<path opacity="0.4" d="M120.382 189.889L119.497 189.364C119.317 189.262 119.231 189.082 119.317 188.973L122.026 185.317C122.12 185.207 122.315 185.207 122.511 185.317L123.411 185.849C123.607 185.951 123.677 186.123 123.607 186.24L120.883 189.889C120.773 190.006 120.562 190.006 120.382 189.889Z" fill="black"/>
<path d="M145.598 133.036C145.598 125.474 143.077 95.7246 155.478 93.2038C159.393 89.0702 178.816 88.6396 181.791 99.1536C185.705 112.948 179.904 146.619 179.904 146.619L145.598 133.036Z" fill="#263238"/>
<path d="M182.486 146.698C182.403 146.689 182.326 146.646 182.273 146.58C182.22 146.514 182.196 146.43 182.205 146.346C182.205 146.002 186.299 112.322 181.774 98.9901C180.514 95.3341 177.014 92.7741 171.824 91.7642C165.067 90.4412 157.732 92.093 155.728 94.4417C155.669 94.499 155.591 94.5312 155.509 94.5312C155.427 94.5312 155.348 94.499 155.289 94.4417C155.26 94.4119 155.236 94.3765 155.22 94.3375C155.204 94.2985 155.195 94.2568 155.195 94.2146C155.195 94.1725 155.204 94.1307 155.22 94.0917C155.236 94.0528 155.26 94.0174 155.289 93.9876C157.638 91.2397 165.608 89.8619 171.988 91.1145C177.406 92.1557 181.109 94.8957 182.416 98.7475C186.98 112.244 182.909 146.041 182.87 146.377C182.871 146.421 182.863 146.463 182.847 146.503C182.831 146.543 182.807 146.58 182.776 146.61C182.745 146.64 182.708 146.663 182.668 146.679C182.627 146.694 182.584 146.701 182.541 146.698H182.486Z" fill="#263238"/>
<path d="M154.194 114.223C152.291 119.703 147.978 129.254 142.623 130.514C142.623 130.514 141.057 136.284 150.185 141.631C160.269 147.503 157.897 139.447 157.897 139.447C153.199 134.937 155.689 130.953 158.883 127.704L154.194 114.223Z" fill="#E4897B"/>
<path d="M156.082 119.715L158.853 127.684C158.109 128.443 157.423 129.257 156.802 130.119C154.884 128.553 152.833 124.874 153.89 122.557C154.444 121.486 155.187 120.523 156.082 119.715Z" fill="#CE6F64"/>
<path d="M154.273 103.32C151.658 112.487 150.358 116.3 153.271 122.492C157.647 131.816 169.453 133.014 174.698 124.841C179.458 117.474 182.91 103.703 175.403 97.1193C173.757 95.6512 171.763 94.627 169.611 94.1436C167.459 93.6601 165.22 93.7334 163.104 94.3563C160.988 94.9793 159.066 96.1315 157.52 97.704C155.973 99.2764 154.853 101.217 154.265 103.343L154.273 103.32Z" fill="#E4897B"/>
<path d="M151.595 109.098C158.109 111.525 173.422 103.446 177.586 98.4981C178.142 90.8573 160.238 93.8714 160.238 93.8714C160.238 93.8714 150.679 90.9356 151.595 109.098Z" fill="#263238"/>
<path d="M150.029 110.924C149.818 111.811 149.784 112.731 149.929 113.631C150.074 114.531 150.396 115.394 150.875 116.17C152.135 118.237 154.452 117.43 155.462 115.387C156.363 113.524 156.785 110.181 154.828 108.834C154.394 108.55 153.895 108.379 153.378 108.335C152.861 108.292 152.341 108.377 151.865 108.585C151.389 108.792 150.972 109.114 150.651 109.523C150.331 109.931 150.117 110.413 150.029 110.924Z" fill="#E4897B"/>
<path d="M127.224 124.051C123.255 123.112 111.05 132.404 111.05 132.404L116.225 148.931C116.225 148.931 128.993 141.885 130.175 136.655C131.35 131.261 131.749 125.139 127.224 124.051Z" fill="#00ABAB"/>
<path d="M127.224 124.051C123.255 123.112 111.05 132.404 111.05 132.404L116.225 148.931C116.225 148.931 128.993 141.885 130.175 136.655C131.35 131.261 131.749 125.139 127.224 124.051Z" fill="#B7BBBC"/>
<path d="M160.371 120.943C160.518 120.746 160.703 120.581 160.916 120.457C161.128 120.333 161.364 120.254 161.608 120.223C161.849 120.192 162.093 120.208 162.328 120.27C162.581 120.341 162.818 120.461 163.025 120.622C163.232 120.771 163.407 120.958 163.542 121.175C163.676 121.391 163.766 121.632 163.808 121.883C163.854 122.118 163.854 122.36 163.808 122.595C163.743 122.839 163.631 123.068 163.479 123.268C163.329 123.466 163.141 123.632 162.925 123.756C162.71 123.879 162.473 123.959 162.226 123.989C161.985 124.017 161.74 123.998 161.506 123.934C161.257 123.862 161.023 123.746 160.817 123.589C160.606 123.432 160.428 123.235 160.292 123.01C160.169 122.804 160.09 122.575 160.058 122.337C160.011 122.099 160.011 121.854 160.058 121.617C160.113 121.373 160.22 121.143 160.371 120.943ZM166.485 109.592C166.845 109.568 167.206 109.568 167.565 109.592C167.946 109.632 168.323 109.702 168.693 109.803C169.089 109.909 169.475 110.053 169.844 110.234C170.251 110.437 170.636 110.681 170.994 110.962C171.505 111.329 171.947 111.782 172.302 112.3C172.614 112.739 172.833 113.237 172.944 113.764C173.057 114.262 173.057 114.778 172.944 115.275C172.81 115.805 172.568 116.301 172.231 116.731C171.943 117.127 171.584 117.466 171.174 117.734C170.837 117.951 170.467 118.115 170.078 118.219C169.723 118.311 169.357 118.358 168.99 118.36H167.957C167.672 118.358 167.387 118.374 167.103 118.407C166.867 118.431 166.643 118.526 166.461 118.681L165.287 119.714L163.447 118.313L164.324 116.747C164.342 116.706 164.363 116.667 164.387 116.63L164.465 116.52C164.641 116.284 164.88 116.102 165.154 115.996C165.431 115.894 165.721 115.834 166.015 115.816C166.321 115.816 166.642 115.816 166.963 115.816C167.283 115.839 167.605 115.839 167.925 115.816C168.235 115.788 168.538 115.714 168.826 115.596C169.138 115.466 169.409 115.252 169.609 114.978C169.734 114.829 169.825 114.654 169.875 114.466C169.925 114.278 169.933 114.081 169.898 113.89C169.801 113.471 169.549 113.105 169.194 112.864C168.94 112.657 168.655 112.493 168.348 112.379C168.125 112.293 167.894 112.228 167.659 112.183L167.111 112.105C166.964 112.089 166.824 112.035 166.704 111.948C166.591 111.863 166.503 111.749 166.449 111.618C166.395 111.488 166.378 111.344 166.399 111.204L166.485 109.592Z" fill="#263238"/>
</g>
<path d="M157.003 173.284C135.082 169.119 120.059 143.934 123.449 117.034C126.839 90.1346 147.366 71.698 169.294 75.8629C191.222 80.0277 206.238 105.213 202.848 132.112V132.167C199.419 159.043 178.908 177.441 157.003 173.284ZM124.083 193.81H202.214C205.577 193.81 208.803 192.474 211.182 190.096C213.56 187.717 214.896 184.492 214.896 181.128V68.0185C214.896 66.353 214.568 64.7038 213.931 63.1651C213.293 61.6264 212.359 60.2282 211.182 59.0506C210.004 57.8729 208.606 56.9387 207.067 56.3013C205.528 55.664 203.879 55.3359 202.214 55.3359H124.083C122.417 55.3359 120.768 55.664 119.23 56.3013C117.691 56.9387 116.293 57.8729 115.115 59.0506C113.937 60.2282 113.003 61.6264 112.366 63.1651C111.728 64.7038 111.4 66.353 111.4 68.0185V181.128C111.4 184.492 112.737 187.717 115.115 190.096C117.493 192.474 120.719 193.81 124.083 193.81Z" fill="white"/>
<path d="M163.148 173.87C161.07 173.862 158.997 173.663 156.955 173.275C134.965 169.118 119.894 143.878 123.323 116.978C126.752 90.0787 147.365 71.6733 169.364 75.8695C191.363 80.0657 206.402 105.274 202.973 132.174C199.943 156.184 182.994 173.877 163.148 173.87ZM157.848 169.666C178.062 173.462 196.921 156.357 199.966 131.383C203.012 106.409 189.108 83.1581 168.902 79.3612C148.696 75.5642 129.837 92.67 126.784 117.628C123.73 142.586 137.626 165.837 157.824 169.666H157.848Z" fill="#00ABAB"/>
</svg>
