<svg width="392" height="124" viewBox="0 0 392 124" fill="none" xmlns="http://www.w3.org/2000/svg">
<path d="M38.3979 98.477C33.739 97.2568 29.3444 95.1896 25.4336 92.3787L31.1591 79.6854C34.5552 82.1078 38.3186 83.9685 42.3053 85.1964C46.4716 86.5659 50.8276 87.2709 55.2132 87.2856C60.0015 87.2856 63.54 86.5742 65.8287 85.1513C66.8487 84.6013 67.7015 83.7867 68.2977 82.7931C68.8938 81.7994 69.2113 80.6635 69.2166 79.5048C69.2321 78.679 69.058 77.8606 68.7075 77.1127C68.3571 76.3648 67.8396 75.7073 67.1951 75.1908C65.6533 73.9432 63.8858 73.0038 61.9891 72.424C59.866 71.7351 57.0089 70.9672 53.3951 70.1654C48.776 69.1192 44.2241 67.7955 39.7644 66.2016C36.2344 64.8989 33.097 62.7139 30.651 59.8549C28.1213 56.9413 26.8527 53.0527 26.8452 48.1892C26.7935 44.1037 27.9741 40.0975 30.2331 36.6929C32.8141 33.0162 36.4137 30.1743 40.5889 28.5168C45.9694 26.3626 51.735 25.3363 57.5284 25.5016C62.1264 25.4954 66.7079 26.0529 71.1703 27.1616C75.2803 28.1424 79.2122 29.7578 82.8246 31.9499L77.6638 44.6997C71.5503 41.0568 64.5876 39.0825 57.4719 38.9741C52.7514 38.9741 49.2618 39.727 47.0032 41.2327C45.9615 41.8578 45.101 42.744 44.5068 43.8037C43.9126 44.8633 43.6053 46.0597 43.6153 47.2745C43.6153 49.7702 44.9141 51.6336 47.5115 52.8419C51.3665 54.4583 55.3779 55.6731 59.482 56.467C64.1022 57.5187 68.6572 58.8385 73.1239 60.4196C76.608 61.7133 79.719 63.8467 82.181 66.6307C84.7106 69.4765 85.9792 73.3312 85.9867 78.1947C86.0156 82.2604 84.7978 86.2372 82.4972 89.5894C79.8688 93.267 76.2333 96.1064 72.0286 97.7655C66.6457 99.9115 60.8818 100.937 55.089 100.781C49.4444 100.806 43.8247 100.03 38.3979 98.477Z" fill="#00ABAB"/>
<path d="M145.581 83.9505H111.702L105.242 99.5686H87.9639L120.443 26.6836H137.1L169.68 99.5686H151.984L145.581 83.9505ZM140.262 71.1442L128.709 43.2391L117.19 71.1442H140.262Z" fill="#00ABAB"/>
<path d="M194.197 40.2239V59.422H227.918V72.9736H194.197V99.5235H177.325V26.6836H232.379V40.2352L194.197 40.2239Z" fill="#00ABAB"/>
<path d="M260.712 40.2239V59.422H294.489V72.9736H260.757V99.5235H243.896V26.6836H298.973V40.2352L260.712 40.2239Z" fill="#00ABAB"/>
<path d="M366.764 86.0283V99.5799H310.299V26.6836H365.364V40.2352H327.058V56.0454H360.937V69.1679H327.058V86.0283H366.764Z" fill="#00ABAB"/>
<path d="M36.7042 0.000279657H6.0889C4.54493 -0.0145675 3.05383 0.562267 1.92185 1.61235C0.789863 2.66242 0.102894 4.10605 0.00195312 5.64678V36.2508C0.00195312 37.7484 0.596864 39.1846 1.65579 40.2435C2.71471 41.3025 4.15091 41.8973 5.64846 41.8973H11.295V35.1215V11.4062H36.6252C38.1228 11.4062 39.559 10.8113 40.6179 9.75242C41.6768 8.6935 42.2717 7.25723 42.2717 5.75969V0.113182L36.7042 0.000279657Z" fill="#00ABAB"/>
<path d="M385.07 81.9406C383.617 82.0074 382.247 82.6317 381.244 83.6835C380.24 84.7352 379.681 86.1335 379.683 87.5871V112.432H352.229V118.281C352.259 119.759 352.867 121.167 353.923 122.201C354.978 123.236 356.398 123.815 357.876 123.815H385.837C386.558 123.811 387.271 123.658 387.93 123.368C388.59 123.077 389.182 122.653 389.671 122.124C390.161 121.595 390.536 120.97 390.774 120.29C391.012 119.61 391.107 118.887 391.055 118.169V81.918L385.07 81.9406Z" fill="#00ABAB"/>
</svg>
